<?xml version="1.0" encoding="UTF-8" standalone="no"?>
<svg viewBox="0 0 20 20" version="1.1" xmlns="http://www.w3.org/2000/svg" xmlns:xlink="http://www.w3.org/1999/xlink" xmlns:sketch="http://www.bohemiancoding.com/sketch/ns">    
    <g id="Page-1" stroke="none" stroke-width="1" fill="none" fill-rule="evenodd" sketch:type="MSPage">
        <g id="plus" sketch:type="MSLayerGroup" fill="#6AB16D">
            <path d="M10,19.9588235 C4.50882353,19.9588235 0.0411764706,15.4911765 0.0411764706,10 C0.0411764706,4.50882353 4.50882353,0.0411764706 10,0.0411764706 C15.4911765,0.0411764706 19.9588235,4.50882353 19.9588235,10 C19.9588235,15.4911765 15.4911765,19.9588235 10,19.9588235 L10,19.9588235 Z M10,1.13529412 C5.11176471,1.13529412 1.13529412,5.11176471 1.13529412,10 C1.13529412,14.8882353 5.11176471,18.8647059 10,18.8647059 C14.8882353,18.8647059 18.8647059,14.8882353 18.8647059,10 C18.8647059,5.11176471 14.8882353,1.13529412 10,1.13529412 L10,1.13529412 Z" id="Fill-38" sketch:type="MSShapeGroup"></path>
            <path d="M4.70588235,9.41176471 L15.2941176,9.41176471 L15.2941176,10.5882353 L4.70588235,10.5882353 L4.70588235,9.41176471 Z" id="Fill-39" sketch:type="MSShapeGroup"></path>
            <path d="M9.41176471,4.70588235 L10.5882353,4.70588235 L10.5882353,15.2941176 L9.41176471,15.2941176 L9.41176471,4.70588235 Z" id="Fill-40" sketch:type="MSShapeGroup"></path>
        </g>
    </g>    
</svg>