<?xml version="1.0" encoding="UTF-8" standalone="no"?>
<svg width="20px" height="20px" viewBox="0 0 20 20" version="1.1" xmlns="http://www.w3.org/2000/svg" xmlns:xlink="http://www.w3.org/1999/xlink" xmlns:sketch="http://www.bohemiancoding.com/sketch/ns">
    <!-- Generator: Sketch 3.2.2 (9983) - http://www.bohemiancoding.com/sketch -->
    <title>exclamation</title>
    <desc>Created with Sketch.</desc>
    <defs></defs>
    <g id="Page-1" stroke="none" stroke-width="1" fill="none" fill-rule="evenodd" sketch:type="MSPage">
        <g id="Work-hard-and-be-kin-+-exclamation-2" sketch:type="MSLayerGroup" transform="translate(0.000000, -4.000000)" fill="#999999">
            <g id="exclamation" transform="translate(0.000000, 4.000000)" sketch:type="MSShapeGroup">
                <path d="M10,19.9588235 C4.50882353,19.9588235 0.0411764706,15.4911765 0.0411764706,10 C0.0411764706,4.50882353 4.50882353,0.0411764706 10,0.0411764706 C15.4911765,0.0411764706 19.9588235,4.50882353 19.9588235,10 C19.9588235,15.4911765 15.4911765,19.9588235 10,19.9588235 L10,19.9588235 Z M10,1.13529412 C5.11176471,1.13529412 1.13529412,5.11176471 1.13529412,10 C1.13529412,14.8882353 5.11176471,18.8647059 10,18.8647059 C14.8882353,18.8647059 18.8647059,14.8882353 18.8647059,10 C18.8647059,5.11176471 14.8882353,1.13529412 10,1.13529412 L10,1.13529412 Z" id="Fill-49"></path>
            </g>
        </g>
    </g>
</svg>