<?xml version="1.0" encoding="UTF-8" standalone="no"?>
<svg width="20px" height="20px" viewBox="0 0 20 20" version="1.1" xmlns="http://www.w3.org/2000/svg" xmlns:xlink="http://www.w3.org/1999/xlink" xmlns:sketch="http://www.bohemiancoding.com/sketch/ns">    
    <g id="Page-1" stroke="none" stroke-width="1" fill="none" fill-rule="evenodd" sketch:type="MSPage">
        <g id="check" sketch:type="MSLayerGroup" fill="#6AB16D">
            <path d="M10,19.9588235 C4.50882353,19.9588235 0.0411764706,15.4911765 0.0411764706,10 C0.0411764706,4.50882353 4.50882353,0.0411764706 10,0.0411764706 C15.4911765,0.0411764706 19.9588235,4.50882353 19.9588235,10 C19.9588235,15.4911765 15.4911765,19.9588235 10,19.9588235 L10,19.9588235 Z M10,1.13529412 C5.11176471,1.13529412 1.13529412,5.11176471 1.13529412,10 C1.13529412,14.8882353 5.11176471,18.8647059 10,18.8647059 C14.8882353,18.8647059 18.8647059,14.8882353 18.8647059,10 C18.8647059,5.11176471 14.8882353,1.13529412 10,1.13529412 L10,1.13529412 Z" id="Fill-43" sketch:type="MSShapeGroup"></path>
            <path d="M8.81058824,14.3035294 L3.73058824,9.21 L4.50470588,8.43705882 L8.81235294,12.7552941 L15.4958824,6.07117647 L16.2688235,6.84529412 L8.81058824,14.3035294" id="Fill-44" sketch:type="MSShapeGroup"></path>
        </g>
    </g>
</svg>